<?xml version="1.0" encoding="utf-8"?>
<!-- Generator: Adobe Illustrator 25.4.1, SVG Export Plug-In . SVG Version: 6.00 Build 0)  -->
<svg version="1.1" id="Layer_1" xmlns="http://www.w3.org/2000/svg" xmlns:xlink="http://www.w3.org/1999/xlink" x="0px" y="0px"
	 viewBox="0 0 250 508.1" style="enable-background:new 0 0 250 508.1;" xml:space="preserve">
<style type="text/css">
	.st0{display:none;}
	.st1{display:inline;}
	.st2{display:inline;fill:#FFFFFF;}
	.st3{fill:#1C1C1C;}
</style>
<g id="Layer_7" class="st0">
	<path class="st1" d="M16.7,402.5c12.2-12.5,72.4-72.2,72.4-72.2s20.1,19.3,38.7,17.7c18.6-1.6,50.8-36.2,50.8-36.2l-52.3-52h0.1
		l-52-52.4c0,0-34.6,32.1-36.2,50.8c-1.7,18.6,17.6,38.7,17.6,38.7S-4.1,357-16.6,369.1c0,0-14.8,19.9,0,33.4S16.7,402.5,16.7,402.5
		z"/>
	<circle class="st2" cx="2.1" cy="381.9" r="11"/>
</g>
<g id="Layer_8">
	<rect x="69.1" y="205.2" class="st3" width="114.5" height="283.2"/>
</g>
<g id="Layer_1_00000114035880957105723500000012251560026010649761_" class="st0">
	<polygon class="st1" points="183,183.2 68.5,183.2 44.7,95.5 208.9,95.5 	"/>
</g>
<g id="Layer_12" class="st0">
	<polygon class="st1" points="183,160.6 68.5,160.6 122.1,73 134,73 	"/>
	<rect x="68.5" y="160.6" class="st1" width="114.7" height="22.6"/>
</g>
<g id="Layer_9" class="st0">
	<polygon class="st1" points="183,183.2 68.5,183.2 37.4,68.5 208.9,95.5 	"/>
</g>
<g id="Layer_10" class="st0">
	<polygon class="st1" points="183.6,183.2 69.1,183.2 95.5,82.1 162.8,82.1 	"/>
	<circle class="st1" cx="130.2" cy="39" r="29.6"/>
</g>
<g id="Layer_11">
	<rect x="113.6" y="62.6" class="st3" width="29.4" height="53.4"/>
	<g id="Layer_11_00000036209515529641635000000009589478912529397643_">
		<rect x="113.6" class="st3" width="29.4" height="53.4"/>
	</g>
</g>
<g id="Layer_3" class="st0">
	<g class="st1">
		<path d="M183.1,135.4L181,183h-51.6H118l0,0H68.6v-47.6C69.8,109,126.3,69,126.3,69S184.3,109,183.1,135.4z"/>
		<path d="M129.5,182.9c-1.9,0.1-3.8,0.2-5.7,0.2c-1.9,0-3.8-0.1-5.7-0.2H129.5z"/>
	</g>
	<rect x="68.6" y="135.2" class="st1" width="114.5" height="47.7"/>
</g>
<g id="Layer_2_00000155862305766556787980000004781084574125016741_" class="st0">
	<polygon class="st1" points="190.6,298.1 87.7,195.2 137.3,96 301.6,249.5 	"/>
</g>
<g id="Layer_4" class="st0">
	<polygon class="st1" points="190.6,298.1 87.7,195.2 178.5,134.9 250.2,201.5 	"/>
	<ellipse transform="matrix(0.1091 -0.994 0.994 0.1091 98.7448 359.9774)" class="st1" cx="250.2" cy="124.9" rx="39" ry="39"/>
</g>
<g id="Layer_5" class="st0">
	<polygon class="st1" points="190.6,298.1 87.7,195.2 178.5,134.9 250.2,201.5 	"/>
	<rect x="213.5" y="107.8" transform="matrix(0.666 -0.746 0.746 0.666 -7.292 231.2365)" class="st1" width="82.1" height="31.9"/>
</g>
<g id="Layer_6" class="st0">
	<polygon class="st1" points="190.6,298.1 87.7,195.2 225.3,142.6 239.7,156.9 	"/>
</g>
<g id="Layer_10_00000157272062369010727210000015864295292942899122_">
	<polygon class="st3" points="181.8,186.1 67.3,186.1 93.6,127.6 161,127.6 	"/>
</g>
</svg>
